PathFileType	4	(X/Y/Z)	69_1_2_p0_0-307_filt_butterworth.trc
DataRate	CameraRate	NumFrames	NumMarkers	Units	OrigDataRate	OrigDataStartFrame	OrigNumFrames
60.0	60.0	6	27	m	60.0	153	307
Frame#	Time	RHip			RKnee			RAnkle			RBigToe			RSmallToe			RHeel			LHip			LKnee			LAnkle			LBigToe			LSmallToe			LHeel			Neck			Head			Nose			RShoulder			RElbow			RWrist			RThumb			RIndex			RPinky			LShoulder			LElbow			LWrist			LThumb			LIndex			LPinky			
		X1	Y1	Z1	X2	Y2	Z2	X3	Y3	Z3	X4	Y4	Z4	X5	Y5	Z5	X6	Y6	Z6	X7	Y7	Z7	X8	Y8	Z8	X9	Y9	Z9	X10	Y10	Z10	X11	Y11	Z11	X12	Y12	Z12	X13	Y13	Z13	X14	Y14	Z14	X15	Y15	Z15	X16	Y16	Z16	X17	Y17	Z17	X18	Y18	Z18	X19	Y19	Z19	X20	Y20	Z20	X21	Y21	Z21	X22	Y22	Z22	X23	Y23	Z23	X24	Y24	Z24	X25	Y25	Z25	X26	Y26	Z26	X27	Y27	Z27	
153	2.55	0.2749265498689787	0.5298485853378474	0.5055239476111355	0.25033129727088466	0.5363012026295336	0.9230639506512816	0.22630902927804258	0.5697733752191361	1.312094856094339	0.258256132222428	0.4346309784929657	1.3361644801410588	0.3214951542395912	0.4696299726788368	1.3280252238263486	0.1808525996201709	0.6711548021661495	1.3873010641614871	0.07375578451249165	0.5007237701459564	0.514026647602031	0.042994747061346705	0.5205522784931315	0.9308840840195551	0.030593856706448343	0.5616513482588935	1.323346836845445	0.10999066631310503	0.37858947654199304	1.3046583111640047	0.04002162626926115	0.4166340921386409	1.3215976694949223	0.038081427490512125	0.5867330268409501	1.3620844007418005	0.20535201625690264	0.5229360282903212	-0.010418244827134606	0.2509401023805244	0.47313068297465954	-0.2564061988434646	0.2585370283777317	0.416870793659904	-0.13663174800393071	0.3530710780833007	0.5391816800169367	0.07723945548982826	0.3620736909836034	0.534355598624619	0.31553184934939826	0.31013780908581257	0.3748566544540136	0.4702358715835564	0.2394296045409705	0.3240518883235857	0.5496627305546298	0.2305126165379212	0.3466163331172216	0.5747731909934766	0.2300245200397484	0.362056644012767	0.5868216105384355	0.06650946922223978	0.4573916367721206	0.04912343707072404	0.06205605339178499	0.4097526407093084	0.28774086746699784	0.16733970363140863	0.3220083348484956	0.4583963187344551	0.25668173459387766	0.3144607368611285	0.51466806748424	0.24254375614216028	0.32717774233886043	0.552156650012259	0.2209664361760515	0.3174671118452252	0.5744372045929684
154	2.566666666666667	0.27487567667508395	0.5298391466722167	0.5055338960879651	0.2502851995704497	0.5363370504855638	0.9222540939328235	0.22634813336302895	0.5696970341357136	1.3120131774584791	0.25610761708029983	0.43959437723179257	1.3390055192475234	0.321418414023023	0.4700434381873615	1.3274513860268675	0.18106167794916775	0.6674162627292805	1.385074690569751	0.07400769769030235	0.5006310326107837	0.5138474592264431	0.04275195917444803	0.5225826506836418	0.9316208620375477	0.0305899574886565	0.5616300803132376	1.3233251606117635	0.10979526669872774	0.3784951527456466	1.304169536262624	0.039157096186753504	0.42152260324369933	1.3242551055213176	0.03772591281749328	0.5861709287621577	1.3627883431588825	0.20528153192067997	0.5228536566387697	-0.009328202666310311	0.2509368356346736	0.4731128256687228	-0.2564019852747497	0.25852636218801917	0.41686235828874135	-0.13661498350382326	0.3530798439056869	0.5391939634905859	0.0772159634897073	0.36207566469881	0.5343386586192914	0.31559047648881194	0.31014142633657293	0.3748588517498044	0.470149478162018	0.23942565675864236	0.32373431985088214	0.5482426225561686	0.2302697785672008	0.34640775992728845	0.5747720408296372	0.2300457182588121	0.3620340768865593	0.5868161756276061	0.06658932236958577	0.4569519070065064	0.048613214922631036	0.062034668368796286	0.4098015445221667	0.28774920896197076	0.1673600928035966	0.32207662969460343	0.4583874536501619	0.25776440630211905	0.3111248808349476	0.5142461155856775	0.24251778424687384	0.3274442304441011	0.5521963875006539	0.22095670710708362	0.31752241088229266	0.5744269636701808
155	2.583333333333333	0.2748672585006998	0.5298027650472169	0.505549948789636	0.25025246559388065	0.5363372738917819	0.9217112902999391	0.22634768768307656	0.5699843035270845	1.312159783861489	0.2536693818715127	0.44425167622960515	1.3402245727746434	0.32124921451967253	0.470585032906646	1.326474299682188	0.18144906905466424	0.6596703846808328	1.3805010532475437	0.07451016929335594	0.5004472124783512	0.5137662529608209	0.04388692669932069	0.5262490577763955	0.9337162075014908	0.030589383968998025	0.561597977988413	1.3233195332199543	0.10969119404944137	0.37821313488524244	1.3033852591157655	0.03852797145582011	0.4250721394258414	1.3262073018841292	0.03665982692886363	0.5849810961464074	1.364797034155411	0.20523087046217775	0.5227961999119982	-0.008455329315290507	0.25093871745320584	0.47309742976842584	-0.2564012437403535	0.2585220821623746	0.4167834975545887	-0.1366016113718943	0.35308872252280366	0.5391960727340064	0.07720385018407429	0.36204142934654865	0.5341386472822676	0.31560960061389604	0.31015094735081916	0.37480340865711453	0.47009875357417674	0.23932975104943024	0.3237052068706324	0.5485837689772625	0.22948826329559732	0.34606559039330603	0.5747466014670186	0.22999848033241868	0.36207375991491	0.5868628031944743	0.06663656669441761	0.4566683749304578	0.048260275233571084	0.061976799532700154	0.4099138175382957	0.2877543204849914	0.1676936788217478	0.32250566528325025	0.4584193958315768	0.2595614231217704	0.3084277329795051	0.5143793745522987	0.2425078628870708	0.3274751346193793	0.552219029676295	0.22094087176265767	0.31757438900977014	0.5743869038745015
156	2.6	0.27488600242546646	0.5297739492476616	0.5055784409307978	0.2502393323411074	0.5363137715993114	0.9215455303603043	0.2263448067597604	0.5701567601269154	1.3123103567516676	0.2522742350661211	0.4471258431721742	1.3395229295741404	0.3210143471220248	0.4711649748847754	1.3260450587866206	0.18185759674134333	0.6516237182423529	1.3757384747157122	0.07507354761828416	0.5002038909596456	0.5137501616489594	0.04471520364156159	0.5288619794864852	0.9360315317418724	0.030606599151548126	0.5615811947660018	1.3233260972672756	0.10966702061680403	0.3780440354926037	1.3028799207462936	0.03830864760947158	0.42636388431518274	1.32694057171246	0.03519337796865706	0.5834716045071766	1.3675196996327108	0.20521222571644732	0.5227855355805843	-0.00805165637335834	0.2509468440976663	0.4730918120947972	-0.25640288171418546	0.2585278966343123	0.41672327669329967	-0.13659540911240875	0.35309599435086736	0.5391924186152133	0.07720119490824454	0.36191572527692945	0.5336952254836576	0.31543908829616985	0.31016712954940234	0.37470155775548813	0.47008864250910165	0.2391745136429393	0.32429751956826225	0.550556981513821	0.22840911248276125	0.3456932124452943	0.5747200161558388	0.22988536323013992	0.3621655386427908	0.5869300478886583	0.06664312504299534	0.4565990898011033	0.048160091836451875	0.06191253153215984	0.41003387532664515	0.28775665055556165	0.16852253282760912	0.3234272108813077	0.45852948018169193	0.2611424911030121	0.3087760924489195	0.5155835454140386	0.24253586738715066	0.326489169396964	0.5522226408470235	0.2209271039680747	0.31758600315123886	0.5743236946389451
157	2.6166666666666667	0.274893978117078	0.5297586212937295	0.5056278471021816	0.2502318771687369	0.5362961923518257	0.92154758031774	0.22634868891145943	0.5701896168717145	1.3124172229970248	0.25220098003467534	0.44855009269988855	1.3385287640143622	0.32081924001880074	0.47158633704507663	1.327078767957349	0.182002331551522	0.6493943511048634	1.374383661869819	0.07543955622841218	0.5000003003599258	0.5137241953963637	0.04421313849248845	0.5276366241685273	0.9370660079480589	0.03065361596842317	0.561620637327913	1.3233593951045055	0.10967139680416092	0.37803693979799446	1.3027489443468292	0.038336614494310514	0.4262712071536409	1.3269148532228305	0.03405790543418613	0.5823296653301611	1.369616243729839	0.20521635942973782	0.5228051425376958	-0.008051502035686763	0.25095609833242477	0.47309906702384347	-0.25640391006887814	0.25852926019407474	0.41682337268549224	-0.13658956444509332	0.35309837640060127	0.5391889465666002	0.07722099960045459	0.36170285448486605	0.5331443511814403	0.31485562190984523	0.31019496540014774	0.3745931307427417	0.47009027008609855	0.23896573296424817	0.32603544656939276	0.5525835945884195	0.22755573704096635	0.3454103893551387	0.5746977357697531	0.22977911863599412	0.36223737918789306	0.586979012256355	0.0666365726686172	0.45662278439252696	0.04818164983535362	0.061897375425717806	0.41007354020269227	0.28775997808514303	0.16961378841494348	0.32457111904704744	0.4586947824977372	0.2608913711398371	0.31244427381974166	0.5175556469636993	0.24264368406985143	0.32377912528924296	0.5522225699724359	0.22091372055991956	0.3175644245981594	0.5742695694170405
158	2.6333333333333333	0.27488011405922	0.5297786152525454	0.5057000532513924	0.2502216726062083	0.5362870391881074	0.9215822788752472	0.22635560490157192	0.5701949974027298	1.312484515628292	0.25330031880951714	0.4492612187178659	1.338473693521801	0.32075554315198485	0.471674649245938	1.328754893264188	0.1817817133540926	0.6537498414936194	1.3770083603171432	0.07547588062968488	0.49996402437382165	0.5137047215973249	0.04293759751993839	0.524787080516931	0.9373136535709218	0.030710341879591	0.5617183843454971	1.3234107121709708	0.10967616023509993	0.3781000437913228	1.3027911553142086	0.03840146542343907	0.42590482445891054	1.3267217013195465	0.03359644094849783	0.5818791542571476	1.3704732606258019	0.20524512668891046	0.5228433628077833	-0.008454435877146909	0.25096032977929433	0.47311361109741656	-0.2564031105060296	0.2585106903413949	0.41708756088214294	-0.1365812285536887	0.35309367575282924	0.5392049142524428	0.0772709478100992	0.36160551267468366	0.5327941391550852	0.313760132138727	0.31022919974363256	0.37451006031168455	0.4700897098891305	0.23871149917870121	0.3292580012606984	0.553577226439315	0.22718268680245218	0.34530826680270943	0.5746944049645294	0.2297356749819274	0.36223257300614936	0.58699617625953	0.06663300961545747	0.4566532975300498	0.048221239014010264	0.06194951331625419	0.4100063593594169	0.28776271949535137	0.17045033288754236	0.3254025527123628	0.4588369865195592	0.25862350882297747	0.3171818885838961	0.5194415613382741	0.242871147156403	0.31989394769694074	0.5522193646672109	0.2208963782564174	0.3175470934603488	0.5742539337261319
